<svg width="1024" height="1024" viewBox="0 0 1024 1024" xmlns="http://www.w3.org/2000/svg">
  <defs>
    <linearGradient id="bg" x1="0" y1="0" x2="1" y2="1">
      <stop offset="0%" stop-color="#5E0B15"/>
      <stop offset="100%" stop-color="#B23A48"/>
    </linearGradient>
    <linearGradient id="road" x1="0" y1="0" x2="0" y2="1">
      <stop offset="0%" stop-color="#1D1D1F"/>
      <stop offset="100%" stop-color="#2B2B30"/>
    </linearGradient>
  </defs>

  <rect x="64" y="64" width="896" height="896" rx="220" fill="url(#bg)"/>

  <circle cx="512" cy="300" r="150" fill="#F4D35E" opacity="0.95"/>

  <path d="M260 640 C360 560, 664 560, 764 640 L764 748 C764 768, 748 784, 728 784 L296 784 C276 784, 260 768, 260 748 Z" fill="#F7F7FA"/>
  <rect x="330" y="592" width="364" height="88" rx="36" fill="#DCE7F2"/>
  <circle cx="360" cy="784" r="58" fill="#1D1D1F"/>
  <circle cx="664" cy="784" r="58" fill="#1D1D1F"/>
  <circle cx="360" cy="784" r="26" fill="#8D99AE"/>
  <circle cx="664" cy="784" r="26" fill="#8D99AE"/>

  <rect x="476" y="150" width="72" height="320" rx="36" fill="url(#road)"/>
  <rect x="500" y="178" width="24" height="50" rx="10" fill="#F4D35E"/>
  <rect x="500" y="250" width="24" height="50" rx="10" fill="#F4D35E"/>
  <rect x="500" y="322" width="24" height="50" rx="10" fill="#F4D35E"/>

  <text x="512" y="500" text-anchor="middle" font-family="Avenir, Helvetica, Arial, sans-serif" font-size="170" font-weight="800" fill="#FFFFFF">CR</text>
</svg>
